<?xml version="1.0" encoding="utf-8"?>
<svg xmlns="http://www.w3.org/2000/svg" width="1024" height="500" viewBox="0 0 1024 500">
  <defs>
    <linearGradient id="bg" x1="0%" y1="0%" x2="100%" y2="100%">
      <stop offset="0%" style="stop-color:#0D1117;stop-opacity:1" />
      <stop offset="50%" style="stop-color:#1a1a2e;stop-opacity:1" />
      <stop offset="100%" style="stop-color:#0f3460;stop-opacity:1" />
    </linearGradient>
    <linearGradient id="accent" x1="0%" y1="0%" x2="100%" y2="0%">
      <stop offset="0%" style="stop-color:#FF6B35" />
      <stop offset="100%" style="stop-color:#00E5FF" />
    </linearGradient>
  </defs>
  <rect width="1024" height="500" fill="url(#bg)" />
  
  <!-- Decorative elements -->
  <circle cx="180" cy="380" r="90" fill="#FF6B35" opacity="0.04" />
  <circle cx="840" cy="380" r="90" fill="#00E5FF" opacity="0.04" />
  <circle cx="512" cy="160" r="60" fill="url(#accent)" opacity="0.06" />
  
  <!-- App name -->
  <text x="512" y="150" font-family="Arial,sans-serif" font-size="72" font-weight="bold" fill="#FFFFFF" text-anchor="middle" letter-spacing="4">GameRadar</text>
  
  <!-- Subtle separator line -->
  <rect x="350" y="172" width="324" height="2" rx="1" fill="url(#accent)" opacity="0.5" />
  
  <!-- Description -->
  <text x="512" y="220" font-family="Arial,sans-serif" font-size="18" fill="#8899aa" text-anchor="middle" letter-spacing="2">Descubre juegos de todas las plataformas</text>
  
  <!-- Platform icons -->
  <rect x="310" y="255" width="120" height="36" rx="18" fill="#1a2332" stroke="#2a3a4f" stroke-width="1" />
  <text x="370" y="278" font-family="Arial,sans-serif" font-size="13" fill="#8899aa" text-anchor="middle">Epic Games</text>
  
  <rect x="452" y="255" width="120" height="36" rx="18" fill="#1a2332" stroke="#2a3a4f" stroke-width="1" />
  <text x="512" y="278" font-family="Arial,sans-serif" font-size="13" fill="#8899aa" text-anchor="middle">Steam</text>
  
  <rect x="594" y="255" width="120" height="36" rx="18" fill="#1a2332" stroke="#2a3a4f" stroke-width="1" />
  <text x="654" y="278" font-family="Arial,sans-serif" font-size="13" fill="#8899aa" text-anchor="middle">GOG</text>
  
  <!-- Game card previews -->
  <rect x="130" y="320" width="180" height="100" rx="8" fill="#161b22" stroke="#2a3a4f" stroke-width="1" />
  <rect x="140" y="330" width="60" height="60" rx="6" fill="#1a2332" />
  <rect x="210" y="335" width="90" height="10" rx="3" fill="#2a3a4f" />
  <rect x="210" y="350" width="60" height="8" rx="3" fill="#1a2332" />
  <rect x="140" y="398" width="60" height="14" rx="4" fill="#00E676" opacity="0.3" />
  
  <rect x="422" y="320" width="180" height="100" rx="8" fill="#161b22" stroke="#2a3a4f" stroke-width="1" />
  <rect x="432" y="330" width="60" height="60" rx="6" fill="#1a2332" />
  <rect x="502" y="335" width="90" height="10" rx="3" fill="#2a3a4f" />
  <rect x="502" y="350" width="60" height="8" rx="3" fill="#1a2332" />
  <rect x="432" y="398" width="60" height="14" rx="4" fill="#00E676" opacity="0.3" />
  
  <rect x="714" y="320" width="180" height="100" rx="8" fill="#161b22" stroke="#2a3a4f" stroke-width="1" />
  <rect x="724" y="330" width="60" height="60" rx="6" fill="#1a2332" />
  <rect x="794" y="335" width="90" height="10" rx="3" fill="#2a3a4f" />
  <rect x="794" y="350" width="60" height="8" rx="3" fill="#1a2332" />
  <rect x="724" y="398" width="60" height="14" rx="4" fill="#00E676" opacity="0.3" />
  
  <!-- Footer -->
  <text x="512" y="478" font-family="Arial,sans-serif" font-size="12" fill="#444" text-anchor="middle">gameradar.onrender.com</text>
</svg>
